<?xml version="1.0" encoding="utf-8"?>
<!-- Generator: Adobe Illustrator 26.1.0, SVG Export Plug-In . SVG Version: 6.00 Build 0)  -->
<svg version="1.1" id="Layer_1" xmlns="http://www.w3.org/2000/svg" xmlns:xlink="http://www.w3.org/1999/xlink" x="0px" y="0px"
	 viewBox="0 0 2184.4 332.6" style="enable-background:new 0 0 2184.4 332.6;" xml:space="preserve">
<style type="text/css">
	.st0{fill:#FF9300;}
</style>
<g>
	<g>
		<g>
			<path class="st0" d="M91.9,192.3v43.8H48v-43.8H91.9z"/>
			<path class="st0" d="M139.8,236.3H96.1v-44h43.6v44H139.8z"/>
			<path class="st0" d="M91.9,140.2H48v-44h43.8L91.9,140.2L91.9,140.2z"/>
			<path class="st0" d="M91.8,188.2H48.1v-43.9h43.7V188.2z"/>
			<path class="st0" d="M91.8,332.6H48v-44.1h43.8V332.6z"/>
			<path class="st0" d="M43.7,236.2H0.1v-44h43.6C43.7,192.2,43.7,236.2,43.7,236.2z"/>
			<path class="st0" d="M43.8,144.2v44H0v-44H43.8z"/>
			<path class="st0" d="M91.8,284.6H48v-44.1h43.8V284.6z"/>
			<path class="st0" d="M43.8,96.4v43.8H0V96.4H43.8z"/>
			<path class="st0" d="M43.7,240.4v44H0.1v-44H43.7z"/>
			<path class="st0" d="M43.8,91.9H0V48.2h43.8V91.9z"/>
			<path class="st0" d="M92,48v43.7H48V48H92z"/>
			<path class="st0" d="M240.2,140.2V96.3H284v43.9L240.2,140.2L240.2,140.2z"/>
			<path class="st0" d="M240.2,144.3H284v43.8h-43.8V144.3z"/>
			<path class="st0" d="M188.1,192.3v44h-43.8v-44H188.1z"/>
			<path class="st0" d="M192.2,192.2h43.7v44h-43.7V192.2z"/>
			<path class="st0" d="M48,0h43.9v43.8H48V0z"/>
			<path class="st0" d="M95.9,0h43.8v43.9H95.9V0z"/>
			<path class="st0" d="M240.2,91.8V48.3H284v43.6L240.2,91.8L240.2,91.8z"/>
			<path class="st0" d="M236,44h-43.6V0.1H236V44z"/>
			<path class="st0" d="M188,43.9h-43.7V0.2H188V43.9z"/>
		</g>
		<g>
			<path class="st0" d="M428.7,332.6h-43.9v-44h43.9V332.6z"/>
			<path class="st0" d="M428.9,240.5v43.9h-44.1v-43.9H428.9z"/>
			<path class="st0" d="M336.4,192.1h43.9v44h-43.9V192.1z"/>
			<path class="st0" d="M380.4,96.3v43.8h-44V96.3H380.4z"/>
			<path class="st0" d="M336.3,188.1v-43.7h44v43.7H336.3z"/>
			<path class="st0" d="M384.6,192.2h44.1V236h-44.1V192.2z"/>
			<path class="st0" d="M384.7,144.3h44v43.8h-44V144.3z"/>
			<path class="st0" d="M428.6,140.2h-44V96.4h44V140.2z"/>
			<path class="st0" d="M380.2,284.6h-43.7v-44.1h43.7V284.6z"/>
			<path class="st0" d="M336.3,92V48.2h44V92H336.3z"/>
			<path class="st0" d="M384.6,91.9V48.1h44.1v43.7L384.6,91.9L384.6,91.9z"/>
			<path class="st0" d="M384.6,0.1h44.1v43.7h-44.1V0.1z"/>
		</g>
		<g>
			<path class="st0" d="M728.6,284.5v-44h44.1v44H728.6z"/>
			<path class="st0" d="M724.7,240.5v44h-44v-44H724.7z"/>
			<path class="st0" d="M728.7,288.4h44v44h-44V288.4z"/>
			<path class="st0" d="M628.4,188.2h-44v-43.9h44V188.2z"/>
			<path class="st0" d="M676.3,188.3h-43.8v-44h43.8V188.3z"/>
			<path class="st0" d="M632.3,236.1v-43.7h44v43.7H632.3z"/>
			<path class="st0" d="M628.3,140.3h-43.8v-44h43.8V140.3z"/>
			<path class="st0" d="M680.5,140.2V96.4h44.1v43.8H680.5z"/>
			<path class="st0" d="M724.7,192.3v43.9h-44v-43.9L724.7,192.3L724.7,192.3z"/>
			<path class="st0" d="M724.6,91.9h-44V48.2h44V91.9z"/>
			<path class="st0" d="M772.7,48.1v43.7h-44.1V48.1H772.7z"/>
			<path class="st0" d="M536.2,140.2V96.3H580v43.9L536.2,140.2L536.2,140.2z"/>
			<path class="st0" d="M580,236.2h-43.6v-43.9H580V236.2z"/>
			<path class="st0" d="M536.2,284.5v-44H580v44H536.2z"/>
			<path class="st0" d="M532.1,288.5v44h-43.7v-44H532.1z"/>
			<path class="st0" d="M488.2,284.5v-44H532v44H488.2z"/>
			<path class="st0" d="M772.7,43.9h-44.1V0.2h44.1V43.9z"/>
			<path class="st0" d="M536.2,91.8V48.3H580v43.6L536.2,91.8L536.2,91.8z"/>
			<path class="st0" d="M532.1,48.2v43.6h-43.7V48.2H532.1z"/>
			<path class="st0" d="M488.4,0H532v43.9h-43.6V0z"/>
		</g>
		<g>
			<path class="st0" d="M828.6,284.4v-43.9h44.1v43.9H828.6z"/>
			<path class="st0" d="M920.7,332.6h-44v-44h44V332.6z"/>
			<path class="st0" d="M920.7,240.5v43.9h-44v-43.9H920.7z"/>
			<path class="st0" d="M968.8,288.5v44h-44.1v-44H968.8z"/>
			<path class="st0" d="M1017,144.3v43.9h-43.9v-43.9L1017,144.3L1017,144.3z"/>
			<path class="st0" d="M828.6,140.2V96.4h44.1v43.8H828.6z"/>
			<path class="st0" d="M920.6,140.2h-44V96.4h44V140.2z"/>
			<path class="st0" d="M920.7,236.2h-44v-43.8h44V236.2z"/>
			<path class="st0" d="M872.6,236.2h-44v-43.8h44V236.2z"/>
			<path class="st0" d="M876.6,188.1v-43.8h44.1v43.8H876.6z"/>
			<path class="st0" d="M872.7,144.3v43.9h-44v-43.9L872.7,144.3L872.7,144.3z"/>
			<path class="st0" d="M924.6,188.2v-43.8h44v43.8H924.6z"/>
			<path class="st0" d="M1017,288.4v44.1h-43.9v-44.1H1017z"/>
			<path class="st0" d="M1021,332.5v-44h43.8v44H1021z"/>
			<path class="st0" d="M920.7,44h-44V0.2h44V44z"/>
			<path class="st0" d="M968.8,0.2v43.7h-44.1V0.2H968.8z"/>
			<path class="st0" d="M973,43.8V0.2h43.9v43.6H973z"/>
			<path class="st0" d="M1064.9,44H1021V0.2h43.9V44z"/>
			<path class="st0" d="M872.6,91.9h-43.8V48.1h43.8V91.9z"/>
			<path class="st0" d="M876.7,48h44v43.8h-44V48z"/>
		</g>
		<g>
			<path class="st0" d="M1168.9,236.1v-43.8h44v43.8H1168.9z"/>
			<path class="st0" d="M1121,96.2h43.8v43.9H1121V96.2z"/>
			<path class="st0" d="M1169,140.2V96.3h43.8v43.9L1169,140.2L1169,140.2z"/>
			<path class="st0" d="M1165.1,192.2v43.9h-44v-43.9L1165.1,192.2L1165.1,192.2z"/>
			<path class="st0" d="M1120.9,188.1v-43.7h44v43.7H1120.9z"/>
			<path class="st0" d="M1212.8,188.3h-43.6v-44h43.6V188.3z"/>
			<path class="st0" d="M1169,284.5v-44.1h43.8v44.1H1169z"/>
			<path class="st0" d="M1164.9,284.6H1121v-44h43.9V284.6z"/>
			<path class="st0" d="M1169,332.5v-44h43.8v44H1169z"/>
			<path class="st0" d="M1212.9,44H1169V0.2h43.9V44z"/>
			<path class="st0" d="M1169,48h43.8v43.8H1169V48z"/>
			<path class="st0" d="M1164.9,48.1v43.8h-43.8V48.1H1164.9z"/>
			<path class="st0" d="M1217.3,288.4h43.7v44.1h-43.7V288.4z"/>
			<path class="st0" d="M1309.1,288.5v44h-43.7v-44H1309.1z"/>
			<path class="st0" d="M1313.3,288.4h43.7v44.1h-43.7V288.4z"/>
		</g>
		<g>
			<path class="st0" d="M1410.9,145.8h41v40.9h-41V145.8z"/>
			<path class="st0" d="M1452,138.9h-40.9v-41h40.9V138.9z"/>
			<path class="st0" d="M1559,145.8h41v40.9h-41V145.8z"/>
			<path class="st0" d="M1452,194v40.7h-41V194H1452z"/>
			<path class="st0" d="M1411.2,49.4h40.7v41.1h-40.7V49.4z"/>
			<path class="st0" d="M1596.1,1.5v41h-40.7v-41H1596.1z"/>
			<path class="st0" d="M1507.2,42.5v-41h40.8v41H1507.2z"/>
			<path class="st0" d="M1411,242h40.9v40.7H1411V242z"/>
			<path class="st0" d="M1500.1,1.6v40.9h-40.6V1.6H1500.1z"/>
			<path class="st0" d="M1607.2,90.5v-41h40.8v41H1607.2z"/>
			<path class="st0" d="M1648.1,234.9h-40.7v-41h40.7V234.9z"/>
			<path class="st0" d="M1648.1,145.8v40.9h-40.7v-40.9L1648.1,145.8L1648.1,145.8z"/>
			<path class="st0" d="M1459.2,330.8v-40.6h40.8v40.6H1459.2z"/>
			<path class="st0" d="M1607.2,282.8v-40.6h40.8v40.6H1607.2z"/>
			<path class="st0" d="M1555.2,330.8v-40.6h40.8v40.6H1555.2z"/>
			<path class="st0" d="M1507.3,290h40.6v40.8h-40.6V290z"/>
		</g>
		<g>
			<path class="st0" d="M1747.9,193.9v40.8h-41v-40.8H1747.9z"/>
			<path class="st0" d="M1707,145.8h41v40.9h-41V145.8z"/>
			<path class="st0" d="M1748,138.9h-40.9v-41h40.9V138.9z"/>
			<path class="st0" d="M1748,49.5v41h-41v-41H1748z"/>
			<path class="st0" d="M1747.8,42.6H1707V1.5h40.8V42.6z"/>
			<path class="st0" d="M1851.3,1.4h40.7v41.1h-40.7V1.4z"/>
			<path class="st0" d="M1844,42.6h-40.7V1.5h40.7V42.6z"/>
			<path class="st0" d="M1796.1,42.6h-40.7V1.4h40.7V42.6z"/>
			<path class="st0" d="M1748,242.1v40.7h-41v-40.7L1748,242.1L1748,242.1z"/>
			<path class="st0" d="M1755.2,186.7v-40.9h40.8v40.9L1755.2,186.7L1755.2,186.7z"/>
			<path class="st0" d="M1803.2,186.7v-40.9h40.8v40.9L1803.2,186.7L1803.2,186.7z"/>
			<path class="st0" d="M1747.8,330.9H1707V290h40.8V330.9z"/>
			<path class="st0" d="M1755.2,330.9v-40.6h40.9v40.6H1755.2z"/>
			<path class="st0" d="M1844,331h-40.6v-40.9h40.6V331z"/>
			<path class="st0" d="M1892.2,290.1v40.7h-40.8v-40.7H1892.2z"/>
		</g>
		<g>
			<path class="st0" d="M2136.4,193.8v41h-40.9v-41H2136.4z"/>
			<path class="st0" d="M2047.4,186.8v-41.1h40.9v41.1L2047.4,186.8L2047.4,186.8z"/>
			<path class="st0" d="M2184.4,97.8v41h-40.6v-41H2184.4z"/>
			<path class="st0" d="M2143.6,49.5h40.7v41.1h-40.7V49.5z"/>
			<path class="st0" d="M2184.3,42.6h-40.6V1.5h40.6V42.6z"/>
			<path class="st0" d="M2143.6,234.7v-40.9h40.7v40.9L2143.6,234.7z"/>
			<path class="st0" d="M2184.2,186.8h-40.5V146h40.5V186.8z"/>
			<path class="st0" d="M1992,42.6h-40.6V1.5h40.6V42.6z"/>
			<path class="st0" d="M2136.4,242.2v40.6h-40.9v-40.6L2136.4,242.2L2136.4,242.2z"/>
			<path class="st0" d="M2184.4,242.3v40.6h-40.7v-40.6L2184.4,242.3L2184.4,242.3z"/>
			<path class="st0" d="M1999.5,49.4h40.4v41h-40.4V49.4z"/>
			<path class="st0" d="M1992.1,49.6v40.9h-40.6V49.6H1992.1z"/>
			<path class="st0" d="M1992.2,145.8v40.8h-40.9v-40.8H1992.2z"/>
			<path class="st0" d="M1992.1,193.8v40.9h-40.7v-40.9L1992.1,193.8L1992.1,193.8z"/>
			<path class="st0" d="M2040.1,98.1v40.6h-40.8V98.1H2040.1z"/>
			<path class="st0" d="M1951.3,97.8h40.7v40.8h-40.7V97.8z"/>
			<path class="st0" d="M2143.6,330.9v-40.7h40.7v40.7H2143.6z"/>
			<path class="st0" d="M1992,283h-40.6v-40.9h40.6V283z"/>
			<path class="st0" d="M1992.2,290.2v40.6h-40.9v-40.6H1992.2z"/>
		</g>
	</g>
	<g>
		<path class="st0" d="M2233.3,6.2h-8.2V1.5h21.4v4.7h-8.2v21.7h-5.1V6.2H2233.3z M2250.4,1.5h6l3.8,9.7l2.3,6.8h0.3l2.2-6.8
			l3.7-9.7h6v26.4h-4.7V16.2l0.6-8.9h-0.3l-6,15.9h-3.6l-6.1-15.9h-0.3l0.6,8.9v11.6h-4.6V1.5H2250.4z"/>
	</g>
</g>
</svg>
